# AST/ASF file generated using VICON BodyLanguage
# -----------------------------------------------
:version 1.10
:name VICON
:units
  mass 1.0
  length 0.45
  angle deg
:documentation
   .ast/.asf automatically generated from VICON data using
   VICON BodyBuilder and BodyLanguage model FoxedUp or BRILLIANT.MOD
:root
   order TX TY TZ RX RY RZ
   axis XYZ
   position 0 0 0  
   orientation 0 0 0 
:bonedata
  begin
     id 1 
     name lhipjoint
     direction 0.440178 -0.822639 0.359871 
     length 2.53113 
     axis 0 0 0  XYZ
  end
  begin
     id 2 
     name lfemur
     direction 0.34202 -0.939693 0  
     length 7.88132  
     axis 0 0 20  XYZ
    dof rx ry rz
    limits (-160.0 20.0)
           (-70.0 70.0)
           (-60.0 70.0)
  end
  begin
     id 3 
     name ltibia
     direction 0.34202 -0.939693 0   
     length 8.43783   
     axis 0 0 20   XYZ
    dof rx
    limits (-10.0 170.0)
  end
  begin
     id 4 
     name lfoot
     direction 0.0886351 -0.243523 0.965837   
     length 2.63414   
     axis -90 7.62852e-016 20   XYZ
    dof rx rz
    limits (-45.0 90.0)
           (-70.0 20.0)
  end
  begin
     id 5 
     name ltoes
     direction 1.53703e-011 -4.21717e-011 1   
     length 1.31427   
     axis -90 7.62852e-016 20   XYZ
    dof rx
    limits (-90.0 20.0)
  end
  begin
     id 6 
     name rhipjoint
     direction -0.399779 -0.839773 0.367367   
     length 2.47948  
     axis 0 0 0  XYZ 
  end
  begin
     id 7 
     name rfemur
     direction -0.34202 -0.939693 0   
     length 7.74806   
     axis 0 0 -20   XYZ
    dof rx ry rz
    limits (-160.0 20.0)
           (-70.0 70.0)
           (-70.0 60.0)
  end
  begin
     id 8 
     name rtibia
     direction -0.34202 -0.939693 0   
     length 8.74432   
     axis 0 0 -20   XYZ
    dof rx
    limits (-10.0 170.0)
 end
 begin
     id 9 
     name rfoot
     direction -0.108514 -0.298139 0.948334   
     length 2.66102  
     axis -90 -7.62852e-016 -20   XYZ
    dof rx rz
    limits (-45.0 90.0)
           (-20.0 70.0)
  end
  begin
     id 10 
     name rtoes
     direction -1.53392e-011 -4.22077e-011 1   
     length 1.31983   
     axis -90 -7.62852e-016 -20   XYZ
    dof rx
    limits (-90.0 20.0)
  end
  begin
     id 11 
     name lowerback
     direction 0.0113257 0.999866 0.0118602   
     length 2.58694   
     axis 0 0 0   XYZ
    dof rx ry rz
    limits (-20.0 45.0)
           (-30.0 30.0)
           (-30.0 30.0)
  end
  begin
     id 12 
     name upperback
     direction -0.0164747 0.995193 -0.0965375   
     length 2.52368   
     axis 0 0 0   XYZ
    dof rx ry rz
    limits (-20.0 45.0)
           (-30.0 30.0)
           (-30.0 30.0)
  end
  begin
     id 13 
     name thorax
     direction -0.0194301 0.99433 -0.104552   
     length 2.56099   
     axis 0 0 0   XYZ
    dof rx ry rz
    limits (-20.0 45.0)
           (-30.0 30.0)
           (-30.0 30.0)
  end
  begin
     id 14 
     name lowerneck
     direction 0.0148543 0.995587 -0.092657   
     length 1.71582   
     axis 0 0 0   XYZ
    dof rx ry rz
    limits (-20.0 45.0)
           (-30.0 30.0)
           (-30.0 30.0)
  end
  begin
     id 15 
     name upperneck
     direction -0.0135467 0.993656 -0.111639   
     length 1.68937   
     axis 0 0 0   XYZ
    dof rx ry rz
    limits (-20.0 45.0)
           (-30.0 30.0)
           (-30.0 30.0)
  end
  begin
     id 16
     name head
     direction -0.00615349 0.999547 -0.029448  
     length 1.7462  
     axis 0 0 0   XYZ
    dof rx ry rz
    limits (-20.0 45.0)
           (-30.0 30.0)
           (-30.0 30.0)
  end
  begin
     id 17 
     name lclavicle
     direction 0.988267 0.149885 0.0293713  
     length 4.47222  
     axis 0 0 0   XYZ
    dof ry rz
    limits (-20.0 10.0)
           (0.0 20.0)
  end
  begin
     id 18 
     name lhumerus
     direction 1 -4.48986e-011 -1.14833e-027   
     length 5.37148   
     axis 180 -30 -90   XYZ
    dof rx ry rz
    limits (-60.0 90.0)
           (-90.0 90.0)
           (-90.0 90.0)
  end
  begin
     id 19
     name lradius
     direction 0.999998 0.00170963 -0.000987055   
     length 3.94212   
     axis 180 -30 -90   XYZ
    dof rx
    limits (-10.0 170.0)
  end
  begin
     id 20
     name lwrist
     direction 0.999998 7.53149e-005 -0.00194706   
     length 1.97106   
     axis 4.65056e-015 90 90   XYZ
    dof ry
    limits (-180.0 0.0)
 end
  begin
     id 21 
     name lhand
     direction 1 -4.48973e-011 -1.31746e-026   
     length 1.17917   
     axis 8.4065e-015 90 90   XYZ
    dof rx rz
    limits (-90.0 90.0)
           (-45.0 45.0)
  end
  begin
     id 22 
     name lfingers
     direction 1 -4.49107e-011 -2.63492e-026   
     length 0.950679   
     axis 1.6813e-014 90 90   XYZ
    dof rx
    limits (0.0 90.0)
  end
  begin
     id 23
     name lthumb
     direction 0.707107 -6.35048e-011 0.707107   
     length 1.36499   
     axis -90 45 2.85299e-015   XYZ
    dof rx rz
    limits (-45.0 45.0)
           (-45.0 45.0)
  end
  begin
     id 24 
     name rclavicle
     direction -0.996699 0.0642895 -0.0495725   
     length 4.62611  
     axis 0 0 0   XYZ 
    dof ry rz
    limits (-10.0 20.0)
           (-20.0 0.0)
  end
  begin
     id 25 
     name rhumerus
     direction -1 -4.48919e-011 -2.41059e-027  
     length 5.4981   
     axis 180 30 90   XYZ
    dof rx ry rz
    limits (-90.0 60.0)
           (-90.0 90.0)
           (-90.0 90.0)
  end
  begin
     id 26 
     name rradius
     direction -0.999999 0.00118101 -0.000681858   
     length 3.48381   
     axis 180 30 90   XYZ
    dof rx
    limits (-10.0 170.0)
  end
  begin
     id 27 
     name rwrist
     direction -0.999999 0.000321823 -0.00132288   
     length 1.7419   
     axis 4.65056e-015 -90 -90   XYZ
    dof ry
    limits (-180.0 0.0)
  end
  begin
     id 28
     name rhand
     direction -1 -4.49022e-011 -1.31746e-026   
     length 1.34932   
     axis 8.4065e-015 -90 -90   XYZ
    dof rx rz
    limits (-90.0 90.0)
           (-45.0 45.0)
  end
  begin
     id 29
     name rfingers
     direction -1 -4.49178e-011 -2.63492e-026   
     length 1.08785   
     axis 1.6813e-014 -90 -90   XYZ
    dof rx
    limits (0.0 90.0)
  end
  begin
     id 30
     name rthumb
     direction -0.707107 -6.34713e-011 0.707107   
     length 1.56195   
     axis -90 -45 -2.85299e-015   XYZ
    dof rx rz
    limits (-45.0 45.0)
           (-45.0 45.0)
  end
:hierarchy
  begin
    root lhipjoint rhipjoint lowerback
    lhipjoint lfemur
    lfemur ltibia
    ltibia lfoot
    lfoot ltoes
    rhipjoint rfemur
    rfemur rtibia
    rtibia rfoot
    rfoot rtoes
    lowerback upperback
    upperback thorax
    thorax lowerneck lclavicle rclavicle
    lowerneck upperneck
    upperneck head
    lclavicle lhumerus
    lhumerus lradius
    lradius lwrist
    lwrist lhand lthumb
    lhand lfingers
    rclavicle rhumerus
    rhumerus rradius
    rradius rwrist
    rwrist rhand rthumb
    rhand rfingers
  end

#!OML:ASF X:\für Bonn\!DataBase\2005_08_10_Bjorn_Final\c3d\bjorn.ASF
:FULLY-SPECIFIED
:DEGREES
17
root 0.859066 19.1875 1.88565 -171.928 -2.94974 -180.581
lowerback -3.98386 1.32743 2.59787
upperback 4.40712 1.46929 0.0195184
thorax 6.90213 0.80297 -1.29544
lowerneck -12.2151 -2.88401 -2.17644
upperneck 15.4579 -3.51644 -1.60038
head 6.73841 -2.06051 -0.497672
rclavicle 1.31198e-014 1.15295e-014
rhumerus 76.7836 3.45448 -77.4156
rradius 4.47004
rwrist 49.7615
rhand -14.4356 7.27182
rfingers 7.12502
rthumb 11.7091 -22.3809
lclavicle 1.31198e-014 1.15295e-014
lhumerus 78.0948 -12.9632 80.5347
lradius 5.18732
lwrist -58.5697
lhand -20.0306 -6.21518
lfingers 7.12502
lthumb 6.31029 23.6708
rfemur -17.1334 -13.5843 17.2184
rtibia 32.0464
rfoot -18.9518 13.8503
rtoes -12.5174
lfemur -16.2241 6.26489 -17.5684
ltibia 30.8346
lfoot -16.4312 -7.72488
ltoes -5.76624
18
root 0.856134 19.1845 1.90444 -171.983 -2.88621 -180.638
lowerback -3.63133 1.32622 2.57726
upperback 4.37483 1.47876 -0.00112533
thorax 6.66403 0.803676 -1.31234
lowerneck -12.234 -2.87012 -2.21349
upperneck 15.3907 -3.49493 -1.54
head 6.72191 -2.04455 -0.469533
rclavicle 1.11319e-014 -7.95139e-015
rhumerus 76.6399 3.579 -77.4085
rradius 4.56066
rwrist 49.7383
rhand -14.537 7.06432
rfingers 7.12502
rthumb 11.6113 -22.594
lclavicle 1.11319e-014 -7.95139e-015
lhumerus 77.8974 -12.9945 80.517
lradius 5.21948
lwrist -58.2283
lhand -20.0635 -6.41158
lfingers 7.12502
lthumb 6.27848 23.4754
rfemur -17.3025 -13.1006 17.166
rtibia 32.3563
rfoot -19.1318 13.3537
rtoes -12.7809
lfemur -16.3793 5.53439 -17.7022
ltibia 31.1596
lfoot -16.5737 -6.7007
ltoes -6.96069
19
root 0.853368 19.178 1.92478 -172.082 -2.81355 -180.655
lowerback -3.23205 1.34241 2.60001
upperback 4.37827 1.50574 -0.0151591
thorax 6.43946 0.814024 -1.34574
lowerneck -12.3692 -2.86787 -2.2581
upperneck 15.3837 -3.48469 -1.46822
head 6.74526 -2.0336 -0.440373
rclavicle -1.53064e-014 -4.77083e-015
rhumerus 76.5673 3.66614 -77.394
rradius 4.63333
rwrist 49.7494
rhand -14.6592 6.85059
rfingers 7.12502
rthumb 11.4935 -22.8143
lclavicle -1.53064e-014 -4.77083e-015
lhumerus 77.732 -13.0649 80.4992
lradius 5.30836
lwrist -57.8948
lhand -20.105 -6.60986
lfingers 7.12502
lthumb 6.23845 23.2783
rfemur -17.4708 -12.6193 17.1468
rtibia 32.7549
rfoot -19.334 12.8866
rtoes -13.008
lfemur -16.559 4.84577 -17.7768
ltibia 31.6046
lfoot -16.7418 -5.76899
ltoes -8.10758
20
root 0.850078 19.1653 1.94728 -172.224 -2.75118 -180.674
lowerback -2.74872 1.34622 2.59775
upperback 4.37608 1.5176 -0.00247363
thorax 6.15865 0.813835 -1.3408
lowerneck -12.4872 -2.86105 -2.3238
upperneck 15.3637 -3.46377 -1.40417
head 6.76168 -2.01944 -0.408777
rclavicle 2.26615e-014 -6.75868e-015
rhumerus 76.4984 3.77662 -77.3394
rradius 4.7237
rwrist 49.6857
rhand -14.6739 6.73336
rfingers 7.12502
rthumb 11.4793 -22.9323
lclavicle 2.26615e-014 -6.75868e-015
lhumerus 77.5515 -13.105 80.5194
lradius 5.40031
lwrist -57.7064
lhand -20.1241 -6.72688
lfingers 7.12502
lthumb 6.22003 23.1618
rfemur -17.6618 -12.1769 17.1152
rtibia 33.2636
rfoot -19.5511 12.4511
rtoes -13.3547
lfemur -16.7792 4.21152 -17.8469
ltibia 32.187
lfoot -16.9195 -4.93533
ltoes -9.00748
